<?xml version="1.0" encoding="utf-8"?>
<svg width="24px" height="24.000002px" viewBox="0 0 24 24.000002" version="1.1" xmlns:xlink="http://www.w3.org/1999/xlink" xmlns="http://www.w3.org/2000/svg">
  <g id="vuesaxbrokenwallet-3" transform="translate(0 2.0981465E-06)">
    <path d="M0 0L24 0L24 24L0 24L0 0Z" id="vuesaxbrokenwallet-3" fill="none" fill-rule="evenodd" stroke="none" />
    <g id="vuesaxbrokenwallet-3">
      <g id="wallet-3">
        <path d="M13 11.1499L7 11.1499" id="Vector" fill="none" fill-rule="evenodd" stroke="#292D32" stroke-width="1.5" stroke-linecap="round" stroke-linejoin="round" />
        <path d="M11.3105 2.8501C13.3505 2.8501 15.0005 4.1201 15.0005 6.1601" id="Vector" fill="none" stroke="#292D32" stroke-width="1.5" stroke-linecap="round" stroke-linejoin="round" />
        <path d="M2 10.1501L2 6.53009C2 4.49009 3.65 2.84009 5.69 2.84009L7.62 2.84009" id="Vector" fill="none" stroke="#292D32" stroke-width="1.5" stroke-linecap="round" stroke-linejoin="round" />
        <path d="M2 10.1499C2 7.9399 3.79 6.1499 6 6.1499L16 6.1499C18.2 6.1499 20 7.9499 20 10.1499L20 11.5999L18.92 11.5999C18.36 11.5999 17.85 11.8199 17.48 12.1999C16.98 12.6799 16.74 13.4199 16.94 14.1799C17.19 15.1099 18.11 15.6999 19.07 15.6999L20 15.6999L20 17.1499C20 19.3599 18.21 21.1499 16 21.1499L6 21.1499C3.79 21.1499 2 19.3599 2 17.1499L2 14.5199" id="Vector" fill="none" stroke="#292D32" stroke-width="1.5" stroke-linecap="round" stroke-linejoin="round" />
        <path d="M22.0002 14.6801C22.0002 15.2401 21.5402 15.7001 20.9702 15.7001L19.0402 15.7001C17.9602 15.7001 16.9702 14.9101 16.8802 13.8301C16.8202 13.2001 17.0602 12.6101 17.4802 12.2001C17.8502 11.8201 18.3602 11.6001 18.9202 11.6001L20.9702 11.6001C21.5402 11.6001 22.0002 12.0601 22.0002 12.6201L22.0002 14.6801Z" id="Vector" fill="none" stroke="#292D32" stroke-width="1.5" stroke-linecap="round" stroke-linejoin="round" />
        <path d="M0 24L1.90735e-06 -1.90735e-06L24 0L24 24L0 24Z" id="Vector" fill="none" fill-rule="evenodd" stroke="none" />
      </g>
    </g>
  </g>
</svg>