<?xml version="1.0" encoding="utf-8"?>
<svg width="24px" height="24px" viewBox="0 0 24 24" version="1.1" xmlns:xlink="http://www.w3.org/1999/xlink" xmlns="http://www.w3.org/2000/svg">
  <g id="vuesaxbrokenfolder-cloud">
    <path d="M0 0L24 0L24 24L0 24L0 0Z" id="vuesaxbrokenfolder-cloud" fill="none" fill-rule="evenodd" stroke="none" />
    <g id="vuesaxbrokenfolder-cloud">
      <g id="folder-cloud">
        <path d="M2 7C2 3 3 2 7 2L8.5 2C10 2 10.33 2.44001 10.9 3.20001L12.4 5.20001C12.78 5.70001 13 6 14 6L17 6C21 6 22 7 22 11L22 13" id="Vector" fill="none" stroke="#292D32" stroke-width="1.5" stroke-linecap="round" stroke-linejoin="round" />
        <path d="M9 22L7 22C3 22 2 21 2 17L2 12.03" id="Vector" fill="none" stroke="#292D32" stroke-width="1.5" stroke-linecap="round" stroke-linejoin="round" />
        <g id="Group" transform="translate(11.998047 14.003418)">
          <path d="M1.7625 4.31648C-0.5875 4.48648 -0.5875 7.88647 1.7625 8.05647L7.3225 8.05647C7.9925 8.05647 8.6525 7.80646 9.1425 7.35646C10.7925 5.91646 9.91248 3.03646 7.74248 2.76646C6.96248 -1.92354 0.182519 -0.14354 1.78252 4.32646" id="Vector" fill="none" stroke="#292D32" stroke-width="1.5" stroke-linecap="round" stroke-linejoin="round" />
        </g>
        <path d="M24 0L24 24L0 24L0 0L24 0Z" id="Vector" fill="none" fill-rule="evenodd" stroke="none" />
      </g>
    </g>
  </g>
</svg>