<?xml version="1.0" encoding="utf-8"?>
<svg width="24px" height="24px" viewBox="0 0 24 24" version="1.1" xmlns:xlink="http://www.w3.org/1999/xlink" xmlns="http://www.w3.org/2000/svg">
  <g id="vuesaxbrokenmilk">
    <path d="M0 0L24 0L24 24L0 24L0 0Z" id="vuesaxbrokenmilk" fill="none" fill-rule="evenodd" stroke="none" />
    <g id="vuesaxbrokenmilk">
      <g id="milk">
        <path d="M6 13.98L9.89001 14C10.62 14 11.34 14.17 12 14.5C12.66 14.83 13.38 15 14.12 15L18 15L18 19C18 20.65 16.65 22 15 22L9 22C7.35 22 6 20.65 6 19L6 17.99" id="Vector" fill="none" stroke="#292D32" stroke-width="1.5" stroke-linecap="round" stroke-linejoin="round" />
        <path d="M18 15L14.12 15C13.38 15 12.66 14.83 12 14.5C11.34 14.17 10.62 14 9.89001 14L6 13.98L6 10.83C6 10.37 6.26003 9.74 6.59003 9.41L8.71002 7.28999C8.89002 7.10999 9 6.85 9 6.59L9 5L15 5L15 6.59C15 6.85 15.11 7.10999 15.29 7.28999L17.41 9.41C17.74 9.74 18 10.37 18 10.83L18 15Z" id="Vector" fill="none" stroke="#292D32" stroke-width="1.5" stroke-linecap="round" stroke-linejoin="round" />
        <path d="M18 16L18 15" id="Vector" fill="none" fill-rule="evenodd" stroke="#292D32" stroke-width="1.5" stroke-linecap="round" stroke-linejoin="round" />
        <path d="M9.5 5C8.67 5 8 4.32 8 3.5C8 2.68 8.67 2 9.5 2L14.5 2C15.33 2 16 2.68 16 3.5C16 4.32 15.33 5 14.5 5L9.5 5Z" id="Vector" fill="none" stroke="#292D32" stroke-width="1.5" stroke-linecap="round" stroke-linejoin="round" />
        <path d="M24 0L24 24L0 24L0 0L24 0Z" id="Vector" fill="none" fill-rule="evenodd" stroke="none" />
      </g>
    </g>
  </g>
</svg>