<?xml version="1.0" encoding="utf-8"?>
<svg width="24px" height="24px" viewBox="0 0 24 24" version="1.1" xmlns:xlink="http://www.w3.org/1999/xlink" xmlns="http://www.w3.org/2000/svg">
  <g id="vuesaxbrokenexport">
    <path d="M0 0L24 0L24 24L0 24L0 0Z" id="vuesaxbrokenexport" fill="none" fill-rule="evenodd" stroke="none" />
    <g id="vuesaxbrokenexport">
      <g id="export">
        <path d="M13 11L21.2 2.80005" id="Vector" fill="none" stroke="#292D32" stroke-width="1.5" stroke-linecap="round" stroke-linejoin="round" />
        <path d="M21.9992 6.8L21.9992 2L17.1992 2" id="Vector" fill="none" stroke="#292D32" stroke-width="1.5" stroke-linecap="round" stroke-linejoin="round" />
        <path d="M2 12.99L2 15C2 20 4 22 9 22L15 22C20 22 22 20 22 15L22 13" id="Vector" fill="none" stroke="#292D32" stroke-width="1.5" stroke-linecap="round" stroke-linejoin="round" />
        <path d="M11 2L9 2C4 2 2 4 2 9" id="Vector" fill="none" stroke="#292D32" stroke-width="1.5" stroke-linecap="round" stroke-linejoin="round" />
        <path d="M24 0L24 24L0 24L0 0L24 0Z" id="Vector" fill="none" fill-rule="evenodd" stroke="none" />
      </g>
    </g>
  </g>
</svg>