<?xml version="1.0" encoding="utf-8"?>
<svg width="24px" height="24px" viewBox="0 0 24 24" version="1.1" xmlns:xlink="http://www.w3.org/1999/xlink" xmlns="http://www.w3.org/2000/svg">
  <g id="vuesaxbrokentree" fill-opacity="1">
    <path d="M0 0L24 0L24 24L0 24L0 0Z" id="vuesaxbrokentree" fill="none" fill-rule="evenodd" stroke="none" />
    <g id="vuesaxbrokentree">
      <g id="tree">
        <g id="Group" transform="translate(4.7734375 1.9450684)">
          <path d="M3.0559 8.115C1.8759 8.115 1.4659 7.325 2.1559 6.365L6.32592 0.525C6.81592 -0.175 7.63593 -0.175 8.11592 0.525L12.2859 6.365C12.9859 7.325 12.5759 8.115 11.3959 8.115L3.0559 8.115Z" id="Vector" fill="none" stroke="#292D32" stroke-width="1.5" stroke-linecap="round" stroke-linejoin="round" />
          <path d="M14.0059 13.725C14.9359 15.005 14.3959 16.055 12.8159 16.055L1.64593 16.055C0.0659305 16.055 -0.474072 15.005 0.455928 13.725L4.44592 8.11499L10.0159 8.11499L11.3959 10.055" id="Vector" fill="none" stroke="#292D32" stroke-width="1.5" stroke-linecap="round" stroke-linejoin="round" />
        </g>
        <path d="M12 22L12 18" id="Vector" fill="none" fill-rule="evenodd" stroke="#292D32" stroke-width="1.5" stroke-linecap="round" stroke-linejoin="round" />
        <path d="M24 0L24 24L0 24L0 0L24 0Z" id="Vector" fill="none" fill-rule="evenodd" stroke="none" />
      </g>
    </g>
  </g>
</svg>