<?xml version="1.0" encoding="utf-8"?>
<svg width="24px" height="24px" viewBox="0 0 24 24" version="1.1" xmlns:xlink="http://www.w3.org/1999/xlink" xmlns="http://www.w3.org/2000/svg">
  <g id="vuesaxbrokenclipboard-text">
    <path d="M0 0L24 0L24 24L0 24L0 0Z" id="vuesaxbrokenclipboard-text" fill="none" fill-rule="evenodd" stroke="none" />
    <g id="vuesaxbrokenclipboard-text">
      <g id="clipboard-text">
        <path d="M8 12.2L15 12.2" id="Vector" fill="none" fill-rule="evenodd" stroke="#292D32" stroke-width="1.5" stroke-linecap="round" stroke-linejoin="round" />
        <path d="M8 16.2L12.38 16.2" id="Vector" fill="none" fill-rule="evenodd" stroke="#292D32" stroke-width="1.5" stroke-linecap="round" stroke-linejoin="round" />
        <path d="M10.96 2L10 2C9 2 8 2 8 4C8 6 9 6 10 6L14 6C16 6 16 5 16 4C16 2 15 2 14 2" id="Vector" fill="none" stroke="#292D32" stroke-width="1.5" stroke-linecap="round" stroke-linejoin="round" />
        <path d="M3 10C3 5.44002 4.67 4.20002 8 4.02002" id="Vector" fill="none" stroke="#292D32" stroke-width="1.5" stroke-linecap="round" stroke-linejoin="round" />
        <path d="M16 4.02002C19.33 4.20002 21 5.43002 21 10L21 16C21 20 20 22 15 22L9 22C4 22 3 20 3 16L3 13.91" id="Vector" fill="none" stroke="#292D32" stroke-width="1.5" stroke-linecap="round" stroke-linejoin="round" />
        <path d="M24 0L24 24L0 24L0 0L24 0Z" id="Vector" fill="none" fill-rule="evenodd" stroke="none" />
      </g>
    </g>
  </g>
</svg>