<?xml version="1.0" encoding="utf-8"?>
<svg width="24px" height="24px" viewBox="0 0 24 24" version="1.1" xmlns:xlink="http://www.w3.org/1999/xlink" xmlns="http://www.w3.org/2000/svg">
  <g id="vuesaxbrokensearch-normal">
    <path d="M0 0L24 0L24 24L0 24L0 0Z" id="vuesaxbrokensearch-normal" fill="none" fill-rule="evenodd" stroke="none" />
    <g id="vuesaxbrokensearch-normal">
      <g id="search-normal">
        <path d="M11 2C15.97 2 20 6.03 20 11C20 15.97 15.97 20 11 20C6.03 20 2 15.97 2 11C2 7.5 4 4.46 6.93 2.97" id="Vector" fill="none" stroke="#292D32" stroke-width="1.5" stroke-linecap="round" stroke-linejoin="round" />
        <path d="M21.741 21.33C22.601 20.05 22.041 19 20.501 19C19.351 19 18.711 19.89 19.071 20.97C19.601 22.57 20.811 22.73 21.741 21.33Z" id="Vector" fill="none" stroke="#292D32" stroke-width="1.5" stroke-linecap="round" stroke-linejoin="round" />
        <path d="M24 0L24 24L0 24L0 0L24 0Z" id="Vector" fill="none" fill-rule="evenodd" stroke="none" />
      </g>
    </g>
  </g>
</svg>