<?xml version="1.0" encoding="utf-8"?>
<svg width="24px" height="24px" viewBox="0 0 24 24" version="1.1" xmlns:xlink="http://www.w3.org/1999/xlink" xmlns="http://www.w3.org/2000/svg">
  <g id="vuesaxbrokenscanning">
    <path d="M0 0L24 0L24 24L0 24L0 0Z" id="vuesaxbrokenscanning" fill="none" fill-rule="evenodd" stroke="none" />
    <g id="vuesaxbrokenscanning">
      <g id="scanning">
        <path d="M2 9L2 6.5C2 4.01 4.01 2 6.5 2L9 2" id="Vector" fill="none" stroke="#292D32" stroke-width="1.5" stroke-linecap="round" stroke-linejoin="round" />
        <path d="M15 2L17.5 2C19.99 2 22 4.01 22 6.5L22 9" id="Vector" fill="none" stroke="#292D32" stroke-width="1.5" stroke-linecap="round" stroke-linejoin="round" />
        <path d="M22 16L22 17.5C22 19.99 19.99 22 17.5 22L16 22" id="Vector" fill="none" stroke="#292D32" stroke-width="1.5" stroke-linecap="round" stroke-linejoin="round" />
        <path d="M9 22L6.5 22C4.01 22 2 19.99 2 17.5L2 15" id="Vector" fill="none" stroke="#292D32" stroke-width="1.5" stroke-linecap="round" stroke-linejoin="round" />
        <path d="M11 8.5C11 9.88 9.88 11 8.5 11C7.12 11 6 9.88 6 8.5C6 7.12 7.12 6 8.5 6" id="Vector" fill="none" stroke="#292D32" stroke-width="1.5" stroke-linecap="round" stroke-linejoin="round" />
        <path d="M7.5 18C6.67157 18 6 17.3284 6 16.5C6 15.6716 6.67157 15 7.5 15C8.32843 15 9 15.6716 9 16.5C9 17.3284 8.32843 18 7.5 18Z" id="Vector" fill="none" fill-rule="evenodd" stroke="#292D32" stroke-width="1.5" stroke-linecap="round" stroke-linejoin="round" />
        <path d="M16.5 9C15.6716 9 15 8.32843 15 7.5C15 6.67157 15.6716 6 16.5 6C17.3284 6 18 6.67157 18 7.5C18 8.32843 17.3284 9 16.5 9Z" id="Vector" fill="none" fill-rule="evenodd" stroke="#292D32" stroke-width="1.5" stroke-linecap="round" stroke-linejoin="round" />
        <path d="M13 15.5C13 14.81 13.28 14.18 13.73 13.73C14.18 13.28 14.81 13 15.5 13C16.88 13 18 14.12 18 15.5C18 16.88 16.88 18 15.5 18" id="Vector" fill="none" stroke="#292D32" stroke-width="1.5" stroke-linecap="round" stroke-linejoin="round" />
        <path d="M24 0L24 24L0 24L0 0L24 0Z" id="Vector" fill="none" fill-rule="evenodd" stroke="none" />
      </g>
    </g>
  </g>
</svg>