<?xml version="1.0" encoding="utf-8"?>
<svg width="24px" height="24px" viewBox="0 0 24 24" version="1.1" xmlns:xlink="http://www.w3.org/1999/xlink" xmlns="http://www.w3.org/2000/svg">
  <g id="vuesaxbrokencandle">
    <path d="M0 0L24 0L24 24L0 24L0 0Z" id="vuesaxbrokencandle" fill="none" fill-rule="evenodd" stroke="none" />
    <g id="vuesaxbrokencandle">
      <g id="candle">
        <path d="M6.5 22L6.5 15" id="Vector" fill="none" fill-rule="evenodd" stroke="#292D32" stroke-width="1.5" stroke-linecap="round" stroke-linejoin="round" />
        <path d="M6.5 5L6.5 2" id="Vector" fill="none" fill-rule="evenodd" stroke="#292D32" stroke-width="1.5" stroke-linecap="round" stroke-linejoin="round" />
        <path d="M17.5 22L17.5 19" id="Vector" fill="none" fill-rule="evenodd" stroke="#292D32" stroke-width="1.5" stroke-linecap="round" stroke-linejoin="round" />
        <path d="M17.5 9L17.5 2" id="Vector" fill="none" fill-rule="evenodd" stroke="#292D32" stroke-width="1.5" stroke-linecap="round" stroke-linejoin="round" />
        <path d="M9.5 11.02L9.5 13C9.5 14.1 9 15 7.5 15L5.5 15C4 15 3.5 14.1 3.5 13L3.5 7C3.5 5.9 4 5 5.5 5L7.5 5C9 5 9.5 5.9 9.5 7" id="Vector" fill="none" stroke="#292D32" stroke-width="1.5" stroke-linecap="round" stroke-linejoin="round" />
        <path d="M20.5 17C20.5 18.1 20 19 18.5 19L16.5 19C15 19 14.5 18.1 14.5 17L14.5 11C14.5 9.9 15 9 16.5 9L18.5 9C20 9 20.5 9.9 20.5 11L20.5 17Z" id="Vector" fill="none" stroke="#292D32" stroke-width="1.5" stroke-linecap="round" stroke-linejoin="round" />
        <path d="M24 0L24 24L0 24L0 0L24 0Z" id="Vector" fill="none" fill-rule="evenodd" stroke="none" />
      </g>
    </g>
  </g>
</svg>