<?xml version="1.0" encoding="utf-8"?>
<svg width="283.6822px" height="282.84106px" viewBox="0 0 283.6822 282.84106" version="1.1" xmlns:xlink="http://www.w3.org/1999/xlink" xmlns="http://www.w3.org/2000/svg">
  <g id="nkolo_logo" transform="translate(0 1.5258789E-05)">
    <path d="M0 0L283.682 0L283.682 282.841L0 282.841L0 0Z" id="nkolo_logo" fill="none" fill-rule="evenodd" stroke="none" />
    <path d="M107.186 232.079L178.932 228.319Q179.795 228.273 180.655 228.194Q181.515 228.115 182.372 228.002Q183.229 227.89 184.08 227.743Q184.932 227.597 185.777 227.417Q186.622 227.238 187.459 227.025Q188.297 226.812 189.125 226.567Q189.954 226.322 190.772 226.044Q191.59 225.766 192.397 225.456Q193.203 225.147 193.997 224.806Q194.791 224.465 195.571 224.093Q196.351 223.721 197.116 223.318Q197.88 222.916 198.628 222.484Q199.377 222.052 200.107 221.591Q200.838 221.13 201.55 220.641Q202.262 220.151 202.955 219.634Q203.647 219.117 204.318 218.574Q204.99 218.03 205.64 217.46Q206.289 216.89 206.916 216.296Q207.543 215.701 208.146 215.082Q208.748 214.463 209.327 213.821Q209.905 213.179 210.457 212.515Q211.01 211.85 211.536 211.165Q212.062 210.479 212.56 209.774Q213.059 209.068 213.53 208.343Q214 207.619 214.442 206.876Q214.884 206.134 215.296 205.374Q215.708 204.615 216.09 203.84Q216.473 203.065 216.824 202.276Q217.175 201.487 217.496 200.684Q217.816 199.882 218.104 199.067Q218.393 198.253 218.649 197.427Q218.905 196.602 219.129 195.768L219.673 193.737L53.1855 176.239L63.8067 203.908Q64.1163 204.714 64.4574 205.508Q64.7985 206.302 65.1704 207.082Q65.5424 207.862 65.9447 208.627Q66.347 209.391 66.779 210.139Q67.211 210.888 67.6721 211.618Q68.1332 212.349 68.6226 213.061Q69.112 213.773 69.6289 214.466Q70.1459 215.158 70.6897 215.829Q71.2334 216.501 71.8031 217.15Q72.3728 217.8 72.9676 218.427Q73.5623 219.054 74.1812 219.657Q74.8001 220.259 75.4422 220.838Q76.0843 221.416 76.7486 221.968Q77.4129 222.521 78.0984 223.047Q78.7839 223.573 79.4895 224.071Q80.1951 224.57 80.9197 225.041Q81.6444 225.511 82.3869 225.953Q83.1295 226.395 83.8888 226.807Q84.6481 227.219 85.423 227.601Q86.198 227.984 86.9873 228.335Q87.7766 228.686 88.5791 229.007Q89.3817 229.327 90.1961 229.615Q91.0106 229.904 91.8358 230.16Q92.6609 230.416 93.4955 230.64Q94.3301 230.863 95.1729 231.054Q96.0156 231.245 96.8651 231.402Q97.7147 231.56 98.5698 231.684Q99.4249 231.808 100.284 231.898Q101.143 231.988 102.006 232.045Q102.868 232.101 103.732 232.124Q104.595 232.146 105.459 232.135Q106.323 232.124 107.186 232.079ZM48.359 163.665L222.817 182.001L228 162.659L40.4041 142.942L48.359 163.665ZM236.071 132.537L231.145 150.923L36.1449 130.428Q35.6378 128.099 35.3853 125.729Q35.1328 123.359 35.1378 120.976Q35.1427 118.593 35.4051 116.224Q35.6675 113.855 36.1842 111.528L236.071 132.537ZM40.5524 99.9213L238.841 120.762Q238.943 119.994 239.018 119.224Q239.092 118.453 239.14 117.679Q239.187 116.906 239.208 116.132Q239.228 115.358 239.221 114.583Q239.214 113.809 239.179 113.035Q239.145 112.261 239.084 111.489Q239.022 110.717 238.933 109.947Q238.845 109.178 238.729 108.412Q238.613 107.646 238.471 106.885Q238.328 106.123 238.159 105.368Q237.99 104.612 237.794 103.862Q237.598 103.113 237.376 102.371Q237.154 101.629 236.906 100.895Q236.658 100.161 236.384 99.4366Q236.111 98.712 235.811 97.9975Q235.512 97.283 235.188 96.5794Q234.864 95.8759 234.516 95.1842Q234.167 94.4925 233.795 93.8135Q233.422 93.1345 233.026 92.469Q232.629 91.8035 232.21 91.1524Q231.79 90.5013 231.348 89.8654Q230.906 89.2294 230.441 88.6094Q229.977 87.9894 229.491 87.3862Q229.006 86.7829 228.499 86.1971Q227.992 85.6114 227.465 85.0438Q226.938 84.4762 226.391 83.9275Q225.844 83.3788 225.279 82.8497Q224.713 82.3206 224.129 81.8118Q223.545 81.3029 222.944 80.8149Q222.342 80.327 221.724 79.8604Q221.105 79.3939 220.471 78.9495Q219.837 78.505 219.187 78.0831L158.934 38.954Q158.209 38.4834 157.466 38.0417Q156.724 37.5999 155.965 37.1876Q155.205 36.7753 154.43 36.3932Q153.655 36.011 152.866 35.6596Q152.077 35.3082 151.274 34.988Q150.472 34.6678 149.657 34.3794Q148.843 34.091 148.018 33.8348Q147.192 33.5785 146.358 33.3549Q145.523 33.1313 144.68 32.9406Q143.838 32.7499 142.988 32.5925Q142.139 32.435 141.284 32.311Q140.428 32.187 139.569 32.0967Q138.71 32.0064 137.848 31.9499Q136.986 31.8934 136.122 31.8708Q135.258 31.8482 134.394 31.8595Q133.53 31.8708 132.667 31.916Q131.804 31.9612 130.944 32.0403Q130.084 32.1193 129.227 32.2321Q128.37 32.3449 127.519 32.4912Q126.667 32.6375 125.822 32.8172Q124.977 32.9968 124.14 33.2095Q123.302 33.4222 122.474 33.6676Q121.645 33.913 120.827 34.1907Q120.009 34.4684 119.202 34.7781Q118.396 35.0877 117.602 35.4288Q116.808 35.7699 116.028 36.1418Q115.248 36.5138 114.483 36.9161Q113.719 37.3184 112.971 37.7504Q112.222 38.1825 111.492 38.6435Q110.761 39.1046 110.049 39.594Q109.337 40.0834 108.644 40.6003Q107.952 41.1173 107.281 41.661L51.4472 86.874Q49.7842 88.2207 48.2597 89.7223Q46.7353 91.224 45.3637 92.8665Q43.9922 94.5091 42.7865 96.2769Q41.5808 98.0448 40.5524 99.9213Z" id="Polygon-Copy-Subtract" fill="#040F0F" fill-rule="evenodd" stroke="none" />
  </g>
</svg>