<?xml version="1.0" encoding="utf-8"?>
<svg width="428px" height="101px" viewBox="0 0 428 101" version="1.1" xmlns:xlink="http://www.w3.org/1999/xlink" xmlns="http://www.w3.org/2000/svg">
  <g id="toolbar_bg">
    <path d="M0 0L428 0L428 101L0 101L0 0Z" id="toolbar_bg" fill="none" fill-rule="evenodd" stroke="none" />
    <g id="Group_37672">
      <path d="M0 64L428 64L428 101L0 101L0 64Z" id="Rectangle_14" fill="#2BA84A" fill-opacity="0.236" fill-rule="evenodd" stroke="none" />
      <path d="M0 46L428 46L428 89L0 89L0 46Z" id="Rectangle_13" fill="#2BA84A" fill-opacity="0.347" fill-rule="evenodd" stroke="none" />
      <path d="M0 26L428 26L428 78L0 78L0 26Z" id="Rectangle_12" fill="#2BA84A" fill-opacity="0.409" fill-rule="evenodd" stroke="none" />
      <path d="M0 15L428 15L428 67L0 67L0 15Z" id="Rectangle_11" fill="#2BA84A" fill-opacity="0.584" fill-rule="evenodd" stroke="none" />
      <path d="M0 0L428 0L428 52L0 52L0 0Z" id="Rectangle_10" fill="#2BA84A" fill-rule="evenodd" stroke="none" />
    </g>
  </g>
</svg>