<?xml version="1.0" encoding="utf-8"?>
<svg width="428.00012px" height="517.99994px" viewBox="0 0 428.00012 517.99994" version="1.1" xmlns:xlink="http://www.w3.org/1999/xlink" xmlns="http://www.w3.org/2000/svg">
  <g id="welcome_bg" transform="translate(0 6.1035156E-05)">
    <path d="M0 0L428 0L428 518L0 518L0 0Z" id="welcome_bg" fill="none" fill-rule="evenodd" stroke="none" />
    <path d="M0.00012207 316L428 316L428 -6.10352e-05L0.00012207 -6.10352e-05L0.00012207 316Z" transform="matrix(1 0 0 -1 0 315.99994)" id="Rectangle_14" fill="#2BA84A" fill-opacity="0.236" fill-rule="evenodd" stroke="none" />
    <path d="M0.00012207 291L428 291L428 70.4653L0.00012207 70.4653L0.00012207 291Z" transform="matrix(1 0 0 -1 0 361.46527)" id="Rectangle_13" fill="#2BA84A" fill-opacity="0.347" fill-rule="evenodd" stroke="none" />
    <path d="M0 384L428 384L428 117.307L0 117.307L0 384Z" transform="matrix(1 0 0 -1 0 501.30664)" id="Rectangle_12" fill="#2BA84A" fill-opacity="0.409" fill-rule="evenodd" stroke="none" />
    <path d="M0.00012207 450.069L428 450.069L428 183.376L0.00012207 183.376L0.00012207 450.069Z" transform="matrix(1 0 0 -1 0 633.4453)" id="Rectangle_11" fill="#2BA84A" fill-opacity="0.584" fill-rule="evenodd" stroke="none" />
    <path d="M0.00012207 518L428 518L428 251.307L0.00012207 251.307L0.00012207 518Z" transform="matrix(1 0 0 -1 0 769.30664)" id="Rectangle_10" fill="#2BA84A" fill-rule="evenodd" stroke="none" />
  </g>
</svg>