<?xml version="1.0" encoding="utf-8"?>
<svg width="24px" height="24px" viewBox="0 0 24 24" version="1.1" xmlns:xlink="http://www.w3.org/1999/xlink" xmlns="http://www.w3.org/2000/svg">
  <g id="vuesaxbrokensms-tracking" fill-opacity="1">
    <path d="M29046 -1318L29046 -1318L29046 -1294L29022 -1294L29022 -1318L29046 -1318Z" id="vuesaxbrokensms-tracking" fill="none" stroke="none" />
    <g id="vuesaxbrokensms-tracking">
      <g id="sms-tracking">
        <path d="M22 12.98L22 15.5C22 19 20 20.5 17 20.5L7 20.5" id="Vector" fill="none" stroke="#292D32" stroke-width="1.5" stroke-linecap="round" stroke-linejoin="round" />
        <path d="M2 8.5C2 5 4 3.5 7 3.5L17 3.5C20 3.5 22 5 22 8.5" id="Vector" fill="none" stroke="#292D32" stroke-width="1.5" stroke-linecap="round" stroke-linejoin="round" />
        <path d="M17 9L13.87 11.5C12.84 12.32 11.15 12.32 10.12 11.5L7 9" id="Vector" fill="none" stroke="#292D32" stroke-width="1.5" stroke-linecap="round" stroke-linejoin="round" />
        <path d="M2 16.5L8 16.5" id="Vector" fill="none" fill-rule="evenodd" stroke="#292D32" stroke-width="1.5" stroke-linecap="round" stroke-linejoin="round" />
        <path d="M2 12.5L5 12.5" id="Vector" fill="none" fill-rule="evenodd" stroke="#292D32" stroke-width="1.5" stroke-linecap="round" stroke-linejoin="round" />
        <path d="M24 0L24 24L0 24L0 0L24 0Z" id="Vector" fill="none" fill-rule="evenodd" stroke="none" />
      </g>
    </g>
  </g>
</svg>