<?xml version="1.0" encoding="utf-8"?>
<svg width="24px" height="24px" viewBox="0 0 24 24" version="1.1" xmlns:xlink="http://www.w3.org/1999/xlink" xmlns="http://www.w3.org/2000/svg">
  <g id="vuesaxbrokenkey" fill-opacity="1">
    <path d="M-468 215L-468 215L-468 239L-492 239L-492 215L-468 215Z" id="vuesaxbrokenkey" fill="none" stroke="none" />
    <g id="vuesaxbrokenkey">
      <g id="key">
        <path d="M12.9906 2.14996C15.3706 1.68996 17.9406 2.37996 19.7906 4.21996C22.7406 7.16996 22.7406 11.98 19.7906 14.92C17.7306 16.97 14.7806 17.6 12.1906 16.79L7.48063 21.49C7.14063 21.84 6.47063 22.05 5.99063 21.98L3.81063 21.68C3.09063 21.58 2.42063 20.9 2.31063 20.18L2.01063 18C1.94063 17.52 2.17063 16.85 2.50063 16.51L3.62063 15.39L7.19063 11.82C6.39064 9.21996 7.01063 6.26996 9.07063 4.21996" id="Vector" fill="none" stroke="#FFFFFF" stroke-width="1.5" stroke-linecap="round" stroke-linejoin="round" />
        <path d="M6.89062 17.49L9.19062 19.79" id="Vector" fill="none" fill-rule="evenodd" stroke="#FFFFFF" stroke-width="1.5" stroke-linecap="round" stroke-linejoin="round" />
        <path d="M14.5 11C13.6716 11 13 10.3284 13 9.5C13 8.67157 13.6716 8 14.5 8C15.3284 8 16 8.67157 16 9.5C16 10.3284 15.3284 11 14.5 11Z" id="Vector" fill="none" fill-rule="evenodd" stroke="#FFFFFF" stroke-width="1.5" stroke-linecap="round" stroke-linejoin="round" />
        <path d="M24 0L24 24L0 24L0 0L24 0Z" id="Vector" fill="none" fill-rule="evenodd" stroke="none" />
      </g>
    </g>
  </g>
</svg>