<?xml version="1.0" encoding="utf-8"?>
<svg width="24px" height="24px" viewBox="0 0 24 24" version="1.1" xmlns:xlink="http://www.w3.org/1999/xlink" xmlns="http://www.w3.org/2000/svg">
  <g id="vuesaxbrokennotification-bing" fill-opacity="1">
    <path d="M-26 -1015L-26 -1015L-26 -991L-50 -991L-50 -1015L-26 -1015Z" id="vuesaxbrokennotification-bing" fill="none" stroke="none" />
    <g id="vuesaxbrokennotification-bing">
      <g id="notification-bing">
        <path d="M12 6.43994L12 9.76994" id="Vector" fill="none" fill-rule="evenodd" stroke="#FFFFFF" stroke-width="1.5" stroke-linecap="round" />
        <path d="M20.5894 15.17C21.3194 16.39 20.7394 17.97 19.3894 18.42C14.6094 20.01 9.43944 20.01 4.65944 18.42C3.21944 17.94 2.66944 16.48 3.45944 15.17L4.72944 13.05C5.07944 12.47 5.35944 11.44 5.35944 10.77L5.35944 8.67C5.35944 4.98 8.33944 2 12.0194 2C15.6794 2 18.6794 5 18.6794 8.66L18.6794 10.76C18.6794 10.94 18.6994 11.14 18.7294 11.35" id="Vector" fill="none" stroke="#FFFFFF" stroke-width="1.5" stroke-linecap="round" />
        <path d="M15.3299 18.8201C15.3299 20.6501 13.8299 22.1501 11.9999 22.1501C11.0899 22.1501 10.2499 21.7701 9.64992 21.1701C9.04992 20.5701 8.66992 19.7301 8.66992 18.8201" id="Vector" fill="none" stroke="#FFFFFF" stroke-width="1.5" />
        <path d="M24 0L24 24L0 24L0 0L24 0Z" id="Vector" fill="none" fill-rule="evenodd" stroke="none" />
      </g>
    </g>
  </g>
</svg>