<?xml version="1.0" encoding="utf-8"?>
<svg width="24px" height="24px" viewBox="0 0 24 24" version="1.1" xmlns:xlink="http://www.w3.org/1999/xlink" xmlns="http://www.w3.org/2000/svg">
  <g id="vuesaxbrokenmenu-board" fill-opacity="1">
    <path d="M27501 375L27501 375L27501 399L27477 399L27477 375L27501 375Z" id="vuesaxbrokenmenu-board" fill="none" stroke="none" />
    <g id="vuesaxbrokenmenu-board">
      <g id="menu-board">
        <path d="M1.09976 19.0699C0.659756 20.5299 1.72974 22 3.23974 22L16.3798 22C17.4198 22 18.3097 21.3 18.5597 20.29L21.9297 6.76001C22.0497 6.26001 22.0098 5.76997 21.8198 5.33997C21.4898 4.53997 20.6998 3.95996 19.7498 3.95996L7.44976 3.95996C6.46976 3.95996 5.58975 4.60005 5.30975 5.55005L2.67974 14.01" id="Vector" fill="none" stroke="#292D32" stroke-width="1.5" stroke-linecap="round" stroke-linejoin="round" />
        <path d="M16 22L20.78 22C22.07 22 23.08 20.91 22.99 19.62L22 6" id="Vector" fill="none" stroke="#292D32" stroke-width="1.5" stroke-linecap="round" stroke-linejoin="round" />
        <path d="M9.67969 6.38L10.7197 2.06006" id="Vector" fill="none" fill-rule="evenodd" stroke="#292D32" stroke-width="1.5" stroke-linecap="round" stroke-linejoin="round" />
        <path d="M16.3809 6.39001L17.3209 2.05005" id="Vector" fill="none" fill-rule="evenodd" stroke="#292D32" stroke-width="1.5" stroke-linecap="round" stroke-linejoin="round" />
        <path d="M7.69922 12L15.6992 12" id="Vector" fill="none" fill-rule="evenodd" stroke="#292D32" stroke-width="1.5" stroke-linecap="round" stroke-linejoin="round" />
        <path d="M14.7 16L14 16" id="Vector" fill="none" fill-rule="evenodd" stroke="#292D32" stroke-width="1.5" stroke-linecap="round" stroke-linejoin="round" />
        <path d="M6.69922 16L10.9992 16" id="Vector" fill="none" fill-rule="evenodd" stroke="#292D32" stroke-width="1.5" stroke-linecap="round" stroke-linejoin="round" />
        <path d="M24 0L24 24L0 24L0 0L24 0Z" id="Vector" fill="none" fill-rule="evenodd" stroke="none" />
      </g>
    </g>
  </g>
</svg>